<?xml version="1.0" encoding="UTF-8"?>
<svg id="Lag_1" xmlns="http://www.w3.org/2000/svg" version="1.1" xmlns:xlink="http://www.w3.org/1999/xlink" viewBox="0 0 841.89 595.28">
  <!-- Generator: Adobe Illustrator 30.0.0, SVG Export Plug-In . SVG Version: 2.1.1 Build 123)  -->
  <defs>
    <style>
      .st0, .st1 {
        stroke: #faeab4;
      }

      .st0, .st1, .st2 {
        stroke-miterlimit: 10;
      }

      .st0, .st3 {
        fill: #faeab4;
      }

      .st4, .st1 {
        fill: none;
      }

      .st1 {
        stroke-width: 15px;
      }

      .st5 {
        clip-path: url(#clippath);
      }

      .st2 {
        fill: #97805d;
        stroke: #97805d;
      }
    </style>
    <clipPath id="clippath">
      <rect class="st4" x="-747.23" y="-523.13" width="2372" height="479.35"/>
    </clipPath>
  </defs>
  <g class="st5">
    <g>
      <path class="st0" d="M1143.07-358.31h26.57v144h80.99v27.36h-107.56v-171.36h0ZM995-285.18h103.99v27h-103.99v-27ZM995-214.31h115v27.36h-115v-27.36ZM995-358.49h115.33v27.36h-115.33v-27.36h0ZM956.25-238.33c-4.1,11.04-9.72,20.16-16.85,27.36-7.34,7.68-15.98,13.68-25.92,18s-21.06,6.48-33.37,6.48h-35.96v-27.36h35.64c8.21,0,15.66-1.44,22.35-4.32,6.48-2.88,12.09-6.96,16.85-12.24,4.75-5.28,8.42-11.52,11.01-18.72s3.89-15.12,3.89-23.76-1.3-16.2-3.89-23.4c-2.59-7.44-6.26-13.56-11.01-18.36-4.32-5.04-9.93-9.12-16.85-12.24-6.91-2.88-14.36-4.32-22.35-4.32h-35.64v-27.36h35.96c11.45,0,22.46,2.28,33.04,6.84,9.94,4.08,18.68,10.2,26.24,18.36,7.34,7.44,12.96,16.56,16.85,27.36,4.1,11.04,6.16,22.32,6.16,33.84,0,12.48-2.05,23.76-6.16,33.84h.01ZM667.42-186.49h28.51l33.69-91.44-13.93-41.04-48.27,132.48ZM786.64-186.49h29.16l-56.37-171.72h-29.48l32.72,102.6,23.97,69.12h0ZM643.43-324.1c-2.81-6.72-6.7-12.72-11.66-18-5.18-5.04-11.34-9-18.47-11.88-7.78-2.64-15.98-3.96-24.62-3.96h-60.58v27h58.32c9.72,0,17.82,2.64,24.3,7.92,6.05,5.04,9.07,12.72,9.07,23.04,0,9.36-2.92,16.92-8.75,22.68-6.26,5.52-14.47,8.28-24.62,8.28h-58.32v82.44h26.89v-55.08h30.45c7.99,0,16.09-1.32,24.3-3.96,7.56-2.64,14.04-6.36,19.44-11.16,5.62-4.8,10.04-10.92,13.28-18.36,3.24-7.2,4.86-15.6,4.86-25.2s-1.3-17.04-3.89-23.76h0ZM444.85-272.68v-1.08c0-11.76-1.94-22.8-5.83-33.12-3.89-10.56-9.18-19.68-15.87-27.36-6.48-7.68-14.47-13.68-23.97-18-5.4-2.88-11.99-4.92-19.76-6.12v27.36l3.89,1.44c1.94.72,3.46,1.32,4.54,1.8,6.05,3.12,11.34,7.44,15.87,12.96,4.32,5.04,7.78,11.28,10.37,18.72,2.38,7.44,3.56,15,3.56,22.68v1.8c0,7.92-1.19,15.6-3.56,23.04-2.81,7.68-6.26,13.8-10.37,18.36-4.32,5.52-9.5,9.72-15.55,12.6-2.81,1.44-5.72,2.52-8.75,3.24v27.36c6.48-.96,12.96-3,19.44-6.12,8.85-4.08,16.95-10.2,24.3-18.36,7.13-8.4,12.42-17.52,15.87-27.36,3.89-10.56,5.83-21.6,5.83-33.12v-.72h-.01ZM356.73-214.36c-3.24-.72-6.26-1.8-9.07-3.24-6.05-3.12-11.34-7.44-15.87-12.96-4.32-5.04-7.77-11.28-10.37-18.72-2.38-7.44-3.56-15-3.56-22.68v-1.8c0-7.92,1.19-15.6,3.56-23.04,2.81-7.68,6.26-13.8,10.37-18.36,4.32-5.52,9.5-9.72,15.55-12.6,3.67-1.92,6.8-3.12,9.39-3.6v-27c-7.56,1.2-14.25,3.24-20.09,6.12-9.5,4.56-17.6,10.68-24.3,18.36-6.7,7.68-11.99,16.8-15.87,27.36-3.89,10.56-5.83,21.6-5.83,33.12v1.8c0,11.76,1.94,22.8,5.83,33.12,3.46,10.32,8.64,19.32,15.55,27,6.91,7.92,15.01,14.04,24.3,18.36,5.83,2.88,12.63,4.92,20.41,6.12v-27.36h0ZM263-238.48h-23.97v24.48h-23.65c-8.21,0-15.55-1.44-22.03-4.32-6.48-2.64-12.2-6.6-17.17-11.88-4.54-5.52-8.1-11.76-10.69-18.72-2.59-6.72-3.89-14.52-3.89-23.4,0-8.4,1.3-16.2,3.89-23.4,2.81-7.68,6.37-13.92,10.69-18.72,4.75-5.28,10.47-9.48,17.17-12.6,6.48-2.88,13.82-4.32,22.03-4.32l47.3.36v-27.36l-47.3-.36c-12.09,0-23.22,2.16-33.37,6.48-9.94,4.32-18.57,10.32-25.92,18-7.13,7.68-12.85,16.8-17.17,27.36-3.89,10.32-5.83,21.6-5.83,33.84s1.94,23.64,5.83,34.2c4.32,11.04,10.04,20.16,17.17,27.36,6.48,7.2,15.12,13.32,25.92,18.36,10.37,4.32,21.49,6.48,33.37,6.48h47.62v-51.84h0ZM205.65-259.36h57.34v-26.64h-57.34v26.64ZM-20.19-358.36h123.43v26.64H-20.19v-26.64ZM51.4-309.4L-23.11-209.32v22.32h126.35v-26.64H15.44l70.3-95.76h-34.34ZM-306.55-358.36h26.57v144h80.99v27.36h-107.56v-171.36h0ZM-168.18-285.2h103.99v27h-103.99v-27ZM-168.18-214.34H-53.17v27.36h-115v-27.36h0ZM-168.18-358.52H-52.85v27.36h-115.33v-27.36h0Z"/>
      <g>
        <rect class="st1" x="-562.82" y="-392.43" width="215.32" height="232.71"/>
        <g>
          <path class="st0" d="M-384.49-268.51c-1.33,43.11-46.85,73.92-96.77,77.52-12.15.87-32.7.92-47.85-4.01l14.69-26.37c10.01,2.67,21.86,3.53,33.69,3.15,50.89-1.18,83.24-30.65,84.3-60.8.56-16.02-7-31.53-22.26-40.63l1.01-.85c22.17,11.35,33.9,28.94,33.18,51.98h.01Z"/>
          <path class="st0" d="M-408.05-278.9c-5.33,25.12-33.61,44.03-77.66,41.23-6.1-.39-13.02-1.07-19.2-2.5l13.01-23.34c3.96.59,10.14,1.76,15.45,2.11,34.71,2.21,56.24-11.9,60-30.18,2.02-9.81-1.89-20.85-11.88-27.88l1.02-.76c17.13,9.73,22.53,25.96,19.26,41.32h0Z"/>
          <path class="st0" d="M-428.72-291.89c-8.6,14.09-34.08,18.39-56.72,12.61l6.8-12.12c18,4.36,38.92,1.78,45.03-8.55,3.32-5.62,1.59-13.42-2.02-18.95l.68-.67c8.4,7.69,11.36,19.28,6.23,27.68h0Z"/>
        </g>
        <path class="st3" d="M-417.3-346.35c.89,11.24-8.43,20.55-19.67,19.67-8.84-.7-16.01-7.86-16.71-16.71-.89-11.24,8.43-20.55,19.67-19.67,8.84.7,16.01,7.86,16.71,16.71Z"/>
      </g>
    </g>
  </g>
  <path class="st2" d="M552.34,287.44h8.14v41.76h24.81v7.93h-32.95v-49.69h0ZM509.4,308.64h30.16v7.83h-30.16v-7.83ZM509.4,329.2h33.35v7.93h-33.35v-7.93ZM509.4,287.38h33.45v7.93h-33.45v-7.93h0ZM498.16,322.23c-1.19,3.2-2.82,5.85-4.89,7.93-2.13,2.23-4.63,3.97-7.52,5.22-2.88,1.25-6.11,1.88-9.68,1.88h-10.43v-7.93h10.33c2.38,0,4.54-.42,6.48-1.25,1.88-.84,3.51-2.02,4.89-3.55s2.44-3.34,3.19-5.43,1.13-4.38,1.13-6.89-.38-4.7-1.13-6.79c-.75-2.16-1.82-3.93-3.19-5.32-1.25-1.46-2.88-2.64-4.89-3.55-2-.84-4.16-1.25-6.48-1.25h-10.33v-7.93h10.43c3.32,0,6.51.66,9.58,1.98,2.88,1.18,5.42,2.96,7.61,5.32,2.13,2.16,3.76,4.8,4.89,7.93,1.19,3.2,1.79,6.47,1.79,9.81,0,3.62-.59,6.89-1.79,9.81h.01ZM414.4,337.26h8.27l9.77-26.52-4.04-11.9-14,38.42h0ZM448.98,337.26h8.46l-16.35-49.8h-8.55l9.49,29.75,6.95,20.04h0ZM407.45,297.36c-.81-1.95-1.94-3.69-3.38-5.22-1.5-1.46-3.29-2.61-5.35-3.45-2.25-.77-4.63-1.15-7.14-1.15h-17.57v7.83h16.91c2.82,0,5.17.77,7.05,2.3,1.75,1.46,2.63,3.69,2.63,6.68,0,2.71-.85,4.91-2.54,6.58-1.82,1.6-4.2,2.4-7.14,2.4h-16.91v23.91h7.8v-15.97h8.83c2.32,0,4.67-.38,7.05-1.15,2.19-.77,4.07-1.84,5.64-3.24,1.63-1.39,2.91-3.17,3.85-5.32.94-2.09,1.41-4.52,1.41-7.31s-.38-4.94-1.13-6.89h0ZM591.92,247.24v-.31c0-3.41-.56-6.61-1.69-9.6-1.13-3.06-2.66-5.71-4.6-7.93-1.88-2.23-4.2-3.97-6.95-5.22-1.57-.84-3.48-1.43-5.73-1.77v7.93l1.13.42c.56.21,1,.38,1.32.52,1.75.9,3.29,2.16,4.6,3.76,1.25,1.46,2.25,3.27,3.01,5.43.69,2.16,1.03,4.35,1.03,6.58v.52c0,2.3-.34,4.52-1.03,6.68-.81,2.23-1.82,4-3.01,5.32-1.25,1.6-2.76,2.82-4.51,3.65-.81.42-1.66.73-2.54.94v7.93c1.88-.28,3.76-.87,5.64-1.77,2.57-1.18,4.92-2.96,7.05-5.32,2.07-2.44,3.6-5.08,4.6-7.93,1.13-3.06,1.69-6.26,1.69-9.6v-.21h0v-.02ZM566.37,264.15c-.94-.21-1.82-.52-2.63-.94-1.75-.9-3.29-2.16-4.6-3.76-1.25-1.46-2.25-3.27-3.01-5.43-.69-2.16-1.03-4.35-1.03-6.58v-.52c0-2.3.34-4.52,1.03-6.68.81-2.23,1.82-4,3.01-5.32,1.25-1.6,2.76-2.82,4.51-3.65,1.06-.56,1.97-.9,2.72-1.04v-7.83c-2.19.35-4.13.94-5.82,1.77-2.76,1.32-5.1,3.1-7.05,5.32-1.94,2.23-3.48,4.87-4.6,7.93s-1.69,6.26-1.69,9.6v.52c0,3.41.56,6.61,1.69,9.6,1,2.99,2.51,5.6,4.51,7.83,2,2.3,4.35,4.07,7.05,5.32,1.69.84,3.66,1.43,5.92,1.77v-7.93h0v.02ZM539.18,257.15h-6.95v7.1h-6.86c-2.38,0-4.51-.42-6.39-1.25-1.88-.77-3.54-1.91-4.98-3.45-1.32-1.6-2.35-3.41-3.1-5.43-.75-1.95-1.13-4.21-1.13-6.79,0-2.44.38-4.7,1.13-6.79.81-2.23,1.85-4.04,3.1-5.43,1.38-1.53,3.04-2.75,4.98-3.65,1.88-.84,4.01-1.25,6.39-1.25l13.72.1v-7.93l-13.72-.1c-3.51,0-6.73.63-9.68,1.88-2.88,1.25-5.39,2.99-7.52,5.22-2.07,2.23-3.73,4.87-4.98,7.93-1.13,2.99-1.69,6.26-1.69,9.81s.56,6.86,1.69,9.92c1.25,3.2,2.91,5.85,4.98,7.93,1.88,2.09,4.38,3.86,7.52,5.32,3.01,1.25,6.23,1.88,9.68,1.88h13.81v-15.03h0ZM522.56,251.1h16.63v-7.73h-16.63v7.73ZM457.06,222.39h35.79v7.73h-35.79v-7.73ZM477.82,236.59l-21.61,29.02v6.47h36.64v-7.73h-25.46l20.39-27.77h-9.96ZM374.02,222.39h7.7v41.76h23.49v7.93h-31.19v-49.69h0ZM414.14,243.6h30.16v7.83h-30.16v-7.83ZM414.14,264.16h33.35v7.93h-33.35v-7.93ZM414.14,222.34h33.45v7.93h-33.45v-7.93Z"/>
</svg>